<?xml version="1.0" encoding="UTF-8" standalone="no"?>
<svg
   xmlns:dc="http://purl.org/dc/elements/1.1/"
   xmlns:cc="http://creativecommons.org/ns#"
   xmlns:rdf="http://www.w3.org/1999/02/22-rdf-syntax-ns#"
   xmlns:svg="http://www.w3.org/2000/svg"
   xmlns="http://www.w3.org/2000/svg"
   xmlns:sodipodi="http://sodipodi.sourceforge.net/DTD/sodipodi-0.dtd"
   xmlns:inkscape="http://www.inkscape.org/namespaces/inkscape"
   version="1.1"
   x="0px"
   y="0px"
   viewBox="0 0 244.55818 215.17748"
   id="svg2"
   inkscape:version="0.48.5 r10040"
   width="100%"
   height="100%"
   sodipodi:docname="noun_361091_cc.svg">
  <metadata
     id="metadata16">
    <rdf:RDF>
      <cc:Work
         rdf:about="">
        <dc:format>image/svg+xml</dc:format>
        <dc:type
           rdf:resource="http://purl.org/dc/dcmitype/StillImage" />
        <dc:title></dc:title>
      </cc:Work>
    </rdf:RDF>
  </metadata>
  <defs
     id="defs14" />
  <sodipodi:namedview
     pagecolor="#ffffff"
     bordercolor="#666666"
     borderopacity="1"
     objecttolerance="10"
     gridtolerance="10"
     guidetolerance="10"
     inkscape:pageopacity="0"
     inkscape:pageshadow="2"
     inkscape:window-width="1920"
     inkscape:window-height="1056"
     id="namedview12"
     showgrid="false"
     fit-margin-top="0"
     fit-margin-left="0"
     fit-margin-right="0"
     fit-margin-bottom="0"
     inkscape:zoom="0.944"
     inkscape:cx="136.95917"
     inkscape:cy="81.25122"
     inkscape:window-x="0"
     inkscape:window-y="0"
     inkscape:window-maximized="1"
     inkscape:current-layer="svg2" />
  <g
     transform="translate(71.239132,-867.91757)"
     id="g4">
    <path
       style="color:#000000;fill:#f3482f;stroke:none;stroke-width:3.99999927999999993;marker:none;visibility:visible;display:inline;overflow:visible;enable-background:accumulate;fill-opacity:1"
       d="m 50,5 c -0.942809,0 -2,1.0113317 -2,2 l 0,6 c -0.01493,1.056616 0.943279,2.028455 2,2.028455 1.056721,0 2.014928,-0.971839 2,-2.028455 L 52,7 C 52,5.8651863 50.942809,5 50,5 z m 27,11.9375 c -0.08388,0.0052 -0.167433,0.0156 -0.25,0.03125 -0.436739,0.0631 -0.850501,0.275568 -1.15625,0.59375 l -4,4 c -0.768349,0.730733 -0.789339,2.101999 -0.04372,2.855907 0.745623,0.753908 2.117036,0.748071 2.856215,-0.01216 l 4,-4 c 0.5926,-0.547505 0.799434,-1.472935 0.496312,-2.220633 C 78.599441,17.437918 77.806565,16.917776 77,16.9375 z m -54.21875,0.03125 c -0.757272,0.0737 -1.44839,0.61854 -1.696823,1.337688 -0.248433,0.719148 -0.04099,1.574404 0.509323,2.099812 l 4,4 c 0.739179,0.760228 2.110592,0.766065 2.856215,0.01216 0.745624,-0.753908 0.724634,-2.125174 -0.04371,-2.855907 l -4,-4 C 23.98971,17.135708 23.374831,16.911041 22.78125,16.96875 z M 50,23 c -11.178885,0 -22,9.11333 -22,22 0,15.722694 10.608496,18.045261 11.875,28 l 20.25,0 C 61.391504,63.045261 72,60.722694 72,45 72,32.11333 61.178885,23 50,23 z m 29,23 c 0,0.942809 0.947888,2 2,2 l 7,0 c 1.056616,0.01493 2,-0.943279 2,-2 0,-1.056721 -0.943384,-2.014928 -2,-2 l -7,0 c -1.152243,0 -2,1.057191 -2,2 z m -69,0 c 0,0.942809 0.951519,2 2,2 l 6,0 c 1.056616,0.01493 2.028455,-0.943279 2.028455,-2 0,-1.056721 -0.971839,-2.014928 -2.028455,-2 l -6,0 c -1.150332,0 -2,1.057191 -2,2 z m 18.25,19.4375 c -0.515859,0.02037 -1.020457,0.249734 -1.375,0.625 l -5.15625,5.125 c -0.768349,0.730733 -0.789339,2.101999 -0.04371,2.855907 0.745623,0.753908 2.117036,0.748071 2.856215,-0.01216 L 29.6875,68.875 c 0.574296,-0.555366 0.763107,-1.472491 0.454885,-2.209543 C 29.834163,65.928405 29.048682,65.418711 28.25,65.4375 z m 43.25,0 c -0.757272,0.0737 -1.44839,0.61854 -1.696823,1.337688 -0.248433,0.719148 -0.04099,1.574404 0.509323,2.099812 l 5.15625,5.15625 c 0.739179,0.760228 2.110592,0.766065 2.856215,0.01216 0.745624,-0.753908 0.724634,-2.125174 -0.04372,-2.855907 L 73.125,66.0625 c -0.369111,-0.389876 -0.900629,-0.620972 -1.4375,-0.625 -0.06245,-0.0029 -0.125046,-0.0029 -0.1875,0 z M 40,77 40,87 c 0,2.2981 1.889522,4 4,4 l 12,0 c 2.110477,0 4,-1.7019 4,-4 l 0,-10 z"
       transform="translate(0,952.36218)"
       id="path6"
       inkscape:connector-curvature="0" />
  </g>
  <path
     inkscape:connector-curvature="0"
     d="m 244.55818,202.53551 c 0,6.97351 -5.65787,12.64197 -12.64201,12.64197 H 12.646879 c -2.222824,0 -4.4058623,-0.59151 -6.3262993,-1.68966 -6.03982703,-3.49604 -8.116762,-11.23083 -4.626025,-17.27861 L 111.33451,6.3194025 c 1.11141,-1.920438 2.70028,-3.519918 4.62602,-4.626025 6.04779,-3.488088 13.77198,-1.41380202 17.26802,4.626025 l 109.632,189.8898075 c 1.10346,1.92309 1.69763,4.10347 1.69763,6.3263 z M 212.52082,191.34445 122.27888,35.035765 32.042227,191.34445 H 212.52082 z"
     id="path4"
     style="fill:#f3482f;fill-opacity:1" />
</svg>
