<?xml version="1.0" encoding="UTF-8" standalone="no"?>
<svg
   xmlns:dc="http://purl.org/dc/elements/1.1/"
   xmlns:cc="http://creativecommons.org/ns#"
   xmlns:rdf="http://www.w3.org/1999/02/22-rdf-syntax-ns#"
   xmlns:svg="http://www.w3.org/2000/svg"
   xmlns="http://www.w3.org/2000/svg"
   xmlns:sodipodi="http://sodipodi.sourceforge.net/DTD/sodipodi-0.dtd"
   xmlns:inkscape="http://www.inkscape.org/namespaces/inkscape"
   version="1.1"
   x="0px"
   y="0px"
   viewBox="0 0 92.197843 81.121399"
   enable-background="new 0 0 100 100"
   xml:space="preserve"
   id="svg2"
   inkscape:version="0.48.5 r10040"
   width="100%"
   height="100%"
   sodipodi:docname="noun_240697_cc.svg"><metadata
     id="metadata16"><rdf:RDF><cc:Work
         rdf:about=""><dc:format>image/svg+xml</dc:format><dc:type
           rdf:resource="http://purl.org/dc/dcmitype/StillImage" /><dc:title></dc:title></cc:Work></rdf:RDF></metadata><defs
     id="defs14" /><sodipodi:namedview
     pagecolor="#ffffff"
     bordercolor="#666666"
     borderopacity="1"
     objecttolerance="10"
     gridtolerance="10"
     guidetolerance="10"
     inkscape:pageopacity="0"
     inkscape:pageshadow="2"
     inkscape:window-width="1920"
     inkscape:window-height="1056"
     id="namedview12"
     showgrid="false"
     fit-margin-top="0"
     fit-margin-left="0"
     fit-margin-right="0"
     fit-margin-bottom="0"
     inkscape:zoom="5.3400704"
     inkscape:cx="-9.8124668"
     inkscape:cy="-0.629287"
     inkscape:window-x="0"
     inkscape:window-y="0"
     inkscape:window-maximized="1"
     inkscape:current-layer="svg2" /><path
     d="m 92.197843,76.355399 c 0,2.629 -2.133,4.766 -4.766,4.766 H 4.7678433 c -0.838,0 -1.661,-0.223 -2.385,-0.637 -2.277,-1.318 -3.06,-4.234 -1.744,-6.514 L 41.972843,2.3823989 c 0.419,-0.724 1.018,-1.327 1.744,-1.74399999 2.28,-1.315 5.192,-0.533 6.51,1.74399999 l 41.331,71.5880001 c 0.416,0.725 0.64,1.547 0.64,2.385 z m -12.078,-4.219 -34.021,-58.928 -34.019,58.928 h 68.04 z"
     id="path4"
     inkscape:connector-curvature="0"
     style="stroke:none;stroke-opacity:1;fill:#f36a22;fill-opacity:1" /><path
     d="m 34.004843,45.505399 1.404,-6.74 c 0.106,-0.512 0.556,-0.877 1.076,-0.877 h 9.023 c 0.361,0 0.696,0.176 0.899,0.473 l 4.229,6.062 c 0.244,0.352 0.265,0.809 0.051,1.174 l -5.136,8.957 10.356,8.117 c 0.114,0 0.229,0.004 0.34,0.016 0.387,-0.842 1.104,-1.488 1.98,-1.779 1.752,-0.582 3.644,0.365 4.23,2.117 0.579,-0.215 1.219,-0.221 1.8,-0.008 1.352,0.496 2.044,1.996 1.552,3.344 0.66,0.105 1.203,0.572 1.394,1.211 1.354,-0.299 2.697,0.533 3.024,1.883 h -24.342 c 0.846,-1.555 2.658,-2.309 4.357,-1.812 -0.049,-0.248 -0.049,-0.504 0,-0.748 0.208,-1.066 1.239,-1.754 2.3,-1.545 0.249,-1.059 0.98,-1.943 1.98,-2.385 l -9.516,-7.457 -0.267,0.465 0.718,0.77 c 0.811,0.859 0.978,2.141 0.417,3.184 l -4.667,8.637 c -0.422,0.783 -1.376,1.105 -2.188,0.74 -0.854,-0.381 -1.234,-1.387 -0.854,-2.24 l 3.801,-8.467 -4.856,-5.73 v 5.309 c 0,0.236 -0.031,0.467 -0.092,0.693 l -2.44,9.32 c -0.233,0.887 -1.127,1.428 -2.021,1.221 -0.914,-0.211 -1.483,-1.119 -1.274,-2.033 l 1.724,-7.496 c 0.046,-0.197 0.071,-0.402 0.071,-0.613 v -8.629 c 0,-0.736 0.294,-1.443 0.822,-1.961 l 0.828,-0.809 c -0.392,-0.227 -0.673,-0.594 -0.785,-1.027 l -2.069,-1.623 c -0.238,-0.184 -0.279,-0.525 -0.094,-0.762 0.185,-0.237 0.528,-0.281 0.765,-0.092 l 1.46,1.14 z m 21.432,-5.757 c 0,-1.723 -1.394,-3.115 -3.112,-3.115 -1.722,0 -3.115,1.393 -3.115,3.115 0,1.719 1.394,3.115 3.115,3.115 1.718,0 3.112,-1.397 3.112,-3.115 l 0,0 z m -12.591,12.687 2.188,-3.971 -4.578,2.1 2.39,1.871 m -1.769,-10.791 h -2.931 l -0.764,3.617 3.695,-3.617"
     id="path6"
     inkscape:connector-curvature="0"
     style="fill:#f36a22;fill-opacity:1" /></svg>